<?xml version="1.0" encoding="utf-8"?>
<!-- Generator: Adobe Illustrator 16.0.3, SVG Export Plug-In . SVG Version: 6.00 Build 0)  -->
<!DOCTYPE svg PUBLIC "-//W3C//DTD SVG 1.1//EN" "http://www.w3.org/Graphics/SVG/1.1/DTD/svg11.dtd">
<svg version="1.1" id="Layer_1" xmlns="http://www.w3.org/2000/svg" xmlns:xlink="http://www.w3.org/1999/xlink" x="0px" y="0px"
	 width="112px" height="140px" viewBox="0 0 112 140" enable-background="new 0 0 112 140" xml:space="preserve">
<g>
	<path fill="#555555" d="M109.506,138.5H2.494V51.431C2.494,23.855,24.849,1.5,52.425,1.5h7.149
		c27.576,0,49.932,22.355,49.932,49.931V138.5z"/>
	<g>
		<path fill="#DBDBDB" d="M58.457,74.634c-0.002-0.009-0.002-0.019-0.003-0.025c-0.001,0.009-0.001,0.017-0.001,0.023
			C58.453,74.632,58.454,74.632,58.457,74.634z"/>
		<path fill="#DBDBDB" d="M69.332,80.304c-0.172,0.102-0.348,0.195-0.52,0.29c-0.002,0.001-0.002,0.003-0.004,0.004
			C68.977,80.508,69.152,80.409,69.332,80.304z"/>
		<path fill="#DBDBDB" d="M53.931,81.504l-0.003,0.003c0.361,0.157,0.8,0.306,1.209,0.431l0.007-0.006
			C54.734,81.804,54.331,81.661,53.931,81.504z"/>
		<path fill="#DBDBDB" d="M55.137,81.938c0.414,0.125,0.797,0.226,1.037,0.286c-0.346-0.086-0.69-0.186-1.032-0.292L55.137,81.938z"
			/>
		<path fill="#DBDBDB" d="M56.432,82.285l0.002-0.003c-0.063-0.017-0.125-0.026-0.188-0.041
			C56.36,82.269,56.432,82.285,56.432,82.285z"/>
		<path fill="#DBDBDB" d="M68.541,80.74c-0.41,0.215-0.83,0.411-1.254,0.59c0,0.002,0,0.005-0.002,0.008
			C67.326,81.32,67.834,81.108,68.541,80.74z"/>
		<path fill="#DBDBDB" d="M68.809,80.598c0.002-0.001,0.002-0.003,0.002-0.006c-0.066,0.038-0.135,0.078-0.203,0.113
			C68.674,80.672,68.742,80.636,68.809,80.598z"/>
		<path fill="#DBDBDB" d="M55.709,45.42l-7.516,7.516c-0.649,0.649-1.237,1.335-1.764,2.055c-0.114,0.156-0.218,0.319-0.328,0.477
			c3.631-0.982,7.485-0.923,11.088,0.178l0.615-0.615l4.143-4.144c3.637-3.636,9.531-3.635,13.168,0.001
			c3.633,3.634,3.633,9.53,0,13.165l-4.727,4.725l-0.971,0.972l-0.947,0.945l-0.002,0.004l-1.576,1.573
			c-1.641,1.642-3.74,2.539-5.887,2.699v0.003c-0.002-0.002-0.002,0-0.002,0c-0.451,0.04-0.838,0.041-1.17,0.028
			c-0.727-0.032-1.148-0.145-1.148-0.145c0-0.003,0-0.003,0-0.003c-0.001,0-0.002,0-0.002,0c-1.816-0.32-3.554-1.182-4.955-2.583
			c-1.364-1.363-2.216-3.043-2.557-4.804c-0.01-0.05-0.016-0.102-0.024-0.15c-1.593,0.131-3.151,0.8-4.367,2.017l-2.503,2.504
			c0.857,2.172,2.159,4.211,3.917,5.969c1.757,1.756,3.794,3.062,5.967,3.92c0.399,0.157,0.804,0.299,1.212,0.427
			c0.341,0.105,0.685,0.204,1.033,0.291c0.026,0.006,0.048,0.011,0.071,0.017c0.061,0.016,0.125,0.026,0.186,0.041
			c3.604,0.829,7.412,0.513,10.855-0.95c0.424-0.18,0.844-0.374,1.254-0.59c0.021-0.011,0.045-0.023,0.066-0.035
			c0.068-0.036,0.135-0.075,0.203-0.113c0.172-0.095,0.348-0.188,0.52-0.29c0.002-0.002,0.004-0.002,0.008-0.003
			c1.246-0.738,2.424-1.643,3.494-2.716l7.516-7.515c6.869-6.867,6.869-18.002,0-24.87C73.711,38.554,62.576,38.554,55.709,45.42z"
			/>
		<path fill="#DBDBDB" d="M56.291,94.579l7.518-7.517c0.648-0.648,1.236-1.337,1.764-2.055c0.115-0.156,0.219-0.319,0.326-0.479
			c-3.629,0.984-7.483,0.927-11.085-0.176l-0.616,0.616l-4.144,4.144c-3.636,3.636-9.53,3.636-13.166-0.002
			c-3.636-3.636-3.635-9.528,0-13.164l4.726-4.725l0.971-0.973l0.946-0.946l0.004-0.003l1.573-1.574
			c1.641-1.64,3.742-2.537,5.887-2.698l-0.001-0.003c0.001,0.001,0.001,0.001,0.003,0.001c0.451-0.041,0.838-0.044,1.169-0.029
			c0.727,0.031,1.149,0.144,1.149,0.144s0,0.001,0,0.003c0,0,0.001-0.001,0.003,0c1.814,0.321,3.552,1.18,4.954,2.58
			c1.363,1.363,2.217,3.044,2.557,4.805c0.012,0.052,0.016,0.101,0.023,0.15c1.594-0.13,3.152-0.799,4.369-2.016l2.504-2.505
			c-0.859-2.172-2.162-4.211-3.92-5.967c-1.756-1.758-3.793-3.062-5.965-3.92c-0.4-0.157-0.806-0.298-1.213-0.426
			c-0.342-0.106-0.685-0.208-1.032-0.292c-0.026-0.006-0.048-0.012-0.071-0.018c-0.062-0.016-0.125-0.028-0.186-0.042
			c-3.603-0.831-7.414-0.513-10.855,0.95c-0.423,0.181-0.843,0.375-1.254,0.589c-0.022,0.012-0.044,0.025-0.067,0.037
			c-0.067,0.035-0.134,0.075-0.202,0.113c-0.174,0.094-0.349,0.188-0.521,0.29c-0.002,0.001-0.003,0.003-0.005,0.003
			c-1.248,0.738-2.424,1.643-3.496,2.715l-7.516,7.515c-6.868,6.867-6.868,18.001,0,24.87
			C38.29,101.446,49.424,101.448,56.291,94.579z"/>
		<path fill="#DBDBDB" d="M69.338,80.299c-0.002,0.002-0.006,0.004-0.006,0.005C69.332,80.303,69.336,80.301,69.338,80.299z"/>
		<path fill="#DBDBDB" d="M68.541,80.74c0.023-0.01,0.045-0.021,0.066-0.035C68.586,80.719,68.564,80.729,68.541,80.74z"/>
		<path fill="#DBDBDB" d="M58.457,74.635c0,0,0.422,0.113,1.148,0.146c0-0.006-0.002-0.012,0-0.015
			C59.221,74.745,58.838,74.699,58.457,74.635C58.457,74.634,58.455,74.634,58.457,74.635z"/>
		<path fill="#DBDBDB" d="M56.246,82.241c-0.023-0.006-0.044-0.012-0.071-0.018C56.199,82.228,56.221,82.235,56.246,82.241z"/>
		<path fill="#DBDBDB" d="M59.605,74.766c-0.002,0.003,0,0.009,0,0.015c0.33,0.014,0.717,0.012,1.17-0.029
			c-0.002-0.001,0-0.001,0-0.001C60.385,74.777,59.994,74.785,59.605,74.766z"/>
		<path fill="#DBDBDB" d="M60.777,74.75c-0.002-0.003-0.002-0.006-0.002-0.014c0,0.003,0,0.009,0,0.014
			C60.775,74.748,60.775,74.748,60.777,74.75z"/>
		<rect x="60.774" y="74.749" fill="#DBDBDB" width="0.003" height="0.004"/>
	</g>
</g>
</svg>
